<mxfile host="app.diagrams.net" modified="2023-10-15T15:40:41.015Z" agent="Mozilla/5.0 (Windows NT 10.0; Win64; x64; rv:109.0) Gecko/20100101 Firefox/118.0" version="22.0.4" etag="U4P4qbho3frVBM5aKeZ4" type="github">
  <diagram name="PÃ¡gina-1" id="dDkpwZAfPgdj7UrKbWsn">
    <mxGraphModel>
      <root>
        <mxCell id="0" />
        <mxCell id="1" parent="0" />
      </root>
    </mxGraphModel>
  </diagram>
</mxfile>
